<?xml version="1.0" encoding="UTF-8"?>
<svg xmlns="http://www.w3.org/2000/svg" viewBox="0 0 64 64" width="64" height="64">
  <title>Fleur-de-lis</title>
  <g fill="none" fill-rule="evenodd">
    <path d="M32 2c0 0-6 8-6 12 0 4 6 9 6 9s6-5 6-9c0-4-6-12-6-12z" fill="#1f5a3a"/>
    <path d="M12 22c0 0 6-3 12 2 6 5 8 13 8 13s2-8 8-13c6-5 12-2 12-2s-8 8-8 16c0 8 8 14 8 14s-10 0-20-6c-10 6-20 6-20 6s8-6 8-14c0-8-8-16-8-16z" fill="#1f5a3a"/>
    <ellipse cx="32" cy="52" rx="8" ry="6" fill="#1f5a3a"/>
  </g>
</svg>
